{
  "accessors": [
    {
      "bufferView": 2,
      "componentType": 5126,
      "count": 24,
      "max": [
        1.0,
        1.0,
        1.0
      ],
      "min": [
        -1.0,
        -1.0,
        -1.0
      ],
      "type": "VEC3"
    },
    {
      "bufferView": 2,
      "byteOffset": 288,
      "componentType": 5126,
      "count": 24,
      "max": [
        1.0,
        1.0,
        1.0
      ],
      "min": [
        -1.0,
        -1.0,
        -1.0
      ],
      "type": "VEC3"
    },
    {
      "bufferView": 1,
      "componentType": 5126,
      "count": 24,
      "max": [
        0.0,
        0.0
      ],
      "min": [
        0.0,
        0.0
      ],
      "type": "VEC2"
    },
    {
      "bufferView": 0,
      "componentType": 5125,
      "count": 36,
      "type": "SCALAR"
    },
    {
      "bufferView": 2,
      "byteOffset": 576,
      "componentType": 5126,
      "count": 65534,
      "max": [
        65.14219665527344,
        143.32730102539063,
        2.210900068283081
      ],
      "min": [
        -61.66569900512695,
        112.06269836425781,
        -16.12350082397461
      ],
      "type": "VEC3"
    },
    {
      "bufferView": 2,
      "byteOffset": 786984,
      "componentType": 5126,
      "count": 65534,
      "max": [
        0.7678293585777283,
        0.9306683540344238,
        0.9997291564941406
      ],
      "min": [
        -0.9470420479774475,
        -0.9973667860031128,
        -0.9996102452278137
      ],
      "type": "VEC3"
    },
    {
      "bufferView": 1,
      "byteOffset": 192,
      "componentType": 5126,
      "count": 65534,
      "max": [
        0.0,
        0.0
      ],
      "min": [
        0.0,
        0.0
      ],
      "type": "VEC2"
    },
    {
      "bufferView": 0,
      "byteOffset": 144,
      "componentType": 5125,
      "count": 65538,
      "type": "SCALAR"
    },
    {
      "bufferView": 2,
      "byteOffset": 1573392,
      "componentType": 5126,
      "count": 65533,
      "max": [
        61.572601318359375,
        143.3271942138672,
        6.5346999168396
      ],
      "min": [
        -25.508499145507813,
        -0.47530001401901245,
        -16.12350082397461
      ],
      "type": "VEC3"
    },
    {
      "bufferView": 2,
      "byteOffset": 2359788,
      "componentType": 5126,
      "count": 65533,
      "max": [
        0.9999856948852539,
        0.9653713703155518,
        0.9997291564941406
      ],
      "min": [
        -0.9987180829048157,
        -1.0,
        -0.9996102452278137
      ],
      "type": "VEC3"
    },
    {
      "bufferView": 1,
      "byteOffset": 524464,
      "componentType": 5126,
      "count": 65533,
      "max": [
        0.0,
        0.0
      ],
      "min": [
        0.0,
        0.0
      ],
      "type": "VEC2"
    },
    {
      "bufferView": 0,
      "byteOffset": 262296,
      "componentType": 5125,
      "count": 65541,
      "type": "SCALAR"
    },
    {
      "bufferView": 2,
      "byteOffset": 3146184,
      "componentType": 5126,
      "count": 65533,
      "max": [
        25.507200241088867,
        46.292198181152344,
        6.526800155639648
      ],
      "min": [
        -22.819400787353516,
        -0.47530001401901245,
        -15.237700462341309
      ],
      "type": "VEC3"
    },
    {
      "bufferView": 2,
      "byteOffset": 3932580,
      "componentType": 5126,
      "count": 65533,
      "max": [
        0.9998282194137573,
        0.9651745557785034,
        0.9999939203262329
      ],
      "min": [
        -0.9999856948852539,
        -0.9999996423721313,
        -0.9999961853027344
      ],
      "type": "VEC3"
    },
    {
      "bufferView": 1,
      "byteOffset": 1048728,
      "componentType": 5126,
      "count": 65533,
      "max": [
        0.0,
        0.0
      ],
      "min": [
        0.0,
        0.0
      ],
      "type": "VEC2"
    },
    {
      "bufferView": 0,
      "byteOffset": 524460,
      "componentType": 5125,
      "count": 65547,
      "type": "SCALAR"
    },
    {
      "bufferView": 2,
      "byteOffset": 4718976,
      "componentType": 5126,
      "count": 65533,
      "max": [
        22.835500717163086,
        102.84600067138672,
        11.760600090026855
      ],
      "min": [
        -22.836200714111328,
        12.699999809265137,
        -15.237700462341309
      ],
      "type": "VEC3"
    },
    {
      "bufferView": 2,
      "byteOffset": 5505372,
      "componentType": 5126,
      "count": 65533,
      "max": [
        0.9999847412109375,
        0.5450877547264099,
        0.9998443126678467
      ],
      "min": [
        -0.9999942779541016,
        -0.9045358896255493,
        -0.9999961853027344
      ],
      "type": "VEC3"
    },
    {
      "bufferView": 1,
      "byteOffset": 1572992,
      "componentType": 5126,
      "count": 65533,
      "max": [
        0.0,
        0.0
      ],
      "min": [
        0.0,
        0.0
      ],
      "type": "VEC2"
    },
    {
      "bufferView": 0,
      "byteOffset": 786648,
      "componentType": 5125,
      "count": 65547,
      "type": "SCALAR"
    },
    {
      "bufferView": 2,
      "byteOffset": 6291768,
      "componentType": 5126,
      "count": 65532,
      "max": [
        20.60300064086914,
        102.84600067138672,
        11.760299682617188
      ],
      "min": [
        -20.587600708007813,
        44.72600173950195,
        -13.567000389099121
      ],
      "type": "VEC3"
    },
    {
      "bufferView": 2,
      "byteOffset": 7078152,
      "componentType": 5126,
      "count": 65532,
      "max": [
        0.9999946355819702,
        0.5714198350906372,
        0.9998459219932556
      ],
      "min": [
        -0.9999690651893616,
        -0.904480516910553,
        -0.9999972581863403
      ],
      "type": "VEC3"
    },
    {
      "bufferView": 1,
      "byteOffset": 2097256,
      "componentType": 5126,
      "count": 65532,
      "max": [
        0.0,
        0.0
      ],
      "min": [
        0.0,
        0.0
      ],
      "type": "VEC2"
    },
    {
      "bufferView": 0,
      "byteOffset": 1048836,
      "componentType": 5125,
      "count": 65538,
      "type": "SCALAR"
    },
    {
      "bufferView": 2,
      "byteOffset": 7864536,
      "componentType": 5126,
      "count": 65534,
      "max": [
        20.586999893188477,
        119.74559783935547,
        14.627400398254395
      ],
      "min": [
        -63.021400451660156,
        44.73569869995117,
        -14.355799674987793
      ],
      "type": "VEC3"
    },
    {
      "bufferView": 2,
      "byteOffset": 8650944,
      "componentType": 5126,
      "count": 65534,
      "max": [
        0.9999690651893616,
        0.6387141346931458,
        0.9999953508377075
      ],
      "min": [
        -0.9997947812080383,
        -0.9999540448188782,
        -0.9999972581863403
      ],
      "type": "VEC3"
    },
    {
      "bufferView": 1,
      "byteOffset": 2621512,
      "componentType": 5126,
      "count": 65534,
      "max": [
        0.0,
        0.0
      ],
      "min": [
        0.0,
        0.0
      ],
      "type": "VEC2"
    },
    {
      "bufferView": 0,
      "byteOffset": 1310988,
      "componentType": 5125,
      "count": 65544,
      "type": "SCALAR"
    },
    {
      "bufferView": 2,
      "byteOffset": 9437352,
      "componentType": 5126,
      "count": 65534,
      "max": [
        75.92870330810547,
        120.36370086669922,
        10.383099555969238
      ],
      "min": [
        -71.11489868164063,
        -0.41190001368522644,
        -6.754700183868408
      ],
      "type": "VEC3"
    },
    {
      "bufferView": 2,
      "byteOffset": 10223760,
      "componentType": 5126,
      "count": 65534,
      "max": [
        0.9999980926513672,
        0.9960779547691345,
        0.9994158148765564
      ],
      "min": [
        -0.9998921751976013,
        -0.9998883605003357,
        -0.9999909400939941
      ],
      "type": "VEC3"
    },
    {
      "bufferView": 1,
      "byteOffset": 3145784,
      "componentType": 5126,
      "count": 65534,
      "max": [
        0.0,
        0.0
      ],
      "min": [
        0.0,
        0.0
      ],
      "type": "VEC2"
    },
    {
      "bufferView": 0,
      "byteOffset": 1573164,
      "componentType": 5125,
      "count": 65538,
      "type": "SCALAR"
    },
    {
      "bufferView": 2,
      "byteOffset": 11010168,
      "componentType": 5126,
      "count": 65532,
      "max": [
        76.31649780273438,
        117.0780029296875,
        10.383099555969238
      ],
      "min": [
        -22.756999969482422,
        -0.41200000047683716,
        -5.744900226593018
      ],
      "type": "VEC3"
    },
    {
      "bufferView": 2,
      "byteOffset": 11796552,
      "componentType": 5126,
      "count": 65532,
      "max": [
        0.9999769926071167,
        0.9992527365684509,
        0.9999995231628418
      ],
      "min": [
        -0.9999762773513794,
        -0.9998940825462341,
        -0.9998850226402283
      ],
      "type": "VEC3"
    },
    {
      "bufferView": 1,
      "byteOffset": 3670056,
      "componentType": 5126,
      "count": 65532,
      "max": [
        0.0,
        0.0
      ],
      "min": [
        0.0,
        0.0
      ],
      "type": "VEC2"
    },
    {
      "bufferView": 0,
      "byteOffset": 1835316,
      "componentType": 5125,
      "count": 65538,
      "type": "SCALAR"
    },
    {
      "bufferView": 2,
      "byteOffset": 12582936,
      "componentType": 5126,
      "count": 65534,
      "max": [
        25.483200073242188,
        164.21240234375,
        9.993800163269043
      ],
      "min": [
        -24.207300186157227,
        -0.1509000062942505,
        2.3440001010894775
      ],
      "type": "VEC3"
    },
    {
      "bufferView": 2,
      "byteOffset": 13369344,
      "componentType": 5126,
      "count": 65534,
      "max": [
        0.9999735951423645,
        0.9999936819076538,
        0.9999458193778992
      ],
      "min": [
        -0.9999873638153076,
        -0.9986691474914551,
        -0.9768893122673035
      ],
      "type": "VEC3"
    },
    {
      "bufferView": 1,
      "byteOffset": 4194312,
      "componentType": 5126,
      "count": 65534,
      "max": [
        0.0,
        0.0
      ],
      "min": [
        0.0,
        0.0
      ],
      "type": "VEC2"
    },
    {
      "bufferView": 0,
      "byteOffset": 2097468,
      "componentType": 5125,
      "count": 65538,
      "type": "SCALAR"
    },
    {
      "bufferView": 2,
      "byteOffset": 14155752,
      "componentType": 5126,
      "count": 65534,
      "max": [
        3.458699941635132,
        165.6387939453125,
        9.821599960327148
      ],
      "min": [
        -3.8454999923706055,
        162.5727996826172,
        2.3440001010894775
      ],
      "type": "VEC3"
    },
    {
      "bufferView": 2,
      "byteOffset": 14942160,
      "componentType": 5126,
      "count": 65534,
      "max": [
        0.9999873638153076,
        0.9999936819076538,
        0.9999458193778992
      ],
      "min": [
        -0.9999125003814697,
        -0.9996535778045654,
        -0.9220610857009888
      ],
      "type": "VEC3"
    },
    {
      "bufferView": 1,
      "byteOffset": 4718584,
      "componentType": 5126,
      "count": 65534,
      "max": [
        0.0,
        0.0
      ],
      "min": [
        0.0,
        0.0
      ],
      "type": "VEC2"
    },
    {
      "bufferView": 0,
      "byteOffset": 2359620,
      "componentType": 5125,
      "count": 65538,
      "type": "SCALAR"
    },
    {
      "bufferView": 2,
      "byteOffset": 15728568,
      "componentType": 5126,
      "count": 65532,
      "max": [
        3.8450000286102295,
        165.6387939453125,
        9.821599960327148
      ],
      "min": [
        -3.8076999187469482,
        161.4676971435547,
        0.10819999873638153
      ],
      "type": "VEC3"
    },
    {
      "bufferView": 2,
      "byteOffset": 16514952,
      "componentType": 5126,
      "count": 65532,
      "max": [
        0.9999868869781494,
        0.9996021389961243,
        0.9988410472869873
      ],
      "min": [
        -0.9999868869781494,
        -0.9999678730964661,
        -0.9236501455307007
      ],
      "type": "VEC3"
    },
    {
      "bufferView": 1,
      "byteOffset": 5242856,
      "componentType": 5126,
      "count": 65532,
      "max": [
        0.0,
        0.0
      ],
      "min": [
        0.0,
        0.0
      ],
      "type": "VEC2"
    },
    {
      "bufferView": 0,
      "byteOffset": 2621772,
      "componentType": 5125,
      "count": 65538,
      "type": "SCALAR"
    },
    {
      "bufferView": 2,
      "byteOffset": 17301336,
      "componentType": 5126,
      "count": 65532,
      "max": [
        3.992799997329712,
        173.2812042236328,
        10.079299926757813
      ],
      "min": [
        -3.993299961090088,
        161.52349853515625,
        0.07609999924898148
      ],
      "type": "VEC3"
    },
    {
      "bufferView": 2,
      "byteOffset": 18087720,
      "componentType": 5126,
      "count": 65532,
      "max": [
        0.9999257326126099,
        0.9999653697013855,
        0.999632716178894
      ],
      "min": [
        -0.9997478723526001,
        -0.9993786811828613,
        -0.9998162984848022
      ],
      "type": "VEC3"
    },
    {
      "bufferView": 1,
      "byteOffset": 5767112,
      "componentType": 5126,
      "count": 65532,
      "max": [
        0.0,
        0.0
      ],
      "min": [
        0.0,
        0.0
      ],
      "type": "VEC2"
    },
    {
      "bufferView": 0,
      "byteOffset": 2883924,
      "componentType": 5125,
      "count": 65544,
      "type": "SCALAR"
    },
    {
      "bufferView": 2,
      "byteOffset": 18874104,
      "componentType": 5126,
      "count": 65532,
      "max": [
        4.886199951171875,
        173.51539611816406,
        8.554699897766113
      ],
      "min": [
        -4.854800224304199,
        170.125,
        6.764500141143799
      ],
      "type": "VEC3"
    },
    {
      "bufferView": 2,
      "byteOffset": 19660488,
      "componentType": 5126,
      "count": 65532,
      "max": [
        0.9994032382965088,
        0.9997329711914063,
        0.9782876968383789
      ],
      "min": [
        -0.9994922876358032,
        -0.9997851252555847,
        -0.6543115973472595
      ],
      "type": "VEC3"
    },
    {
      "bufferView": 1,
      "byteOffset": 6291368,
      "componentType": 5126,
      "count": 65532,
      "max": [
        0.0,
        0.0
      ],
      "min": [
        0.0,
        0.0
      ],
      "type": "VEC2"
    },
    {
      "bufferView": 0,
      "byteOffset": 3146100,
      "componentType": 5125,
      "count": 65610,
      "type": "SCALAR"
    },
    {
      "bufferView": 2,
      "byteOffset": 20446872,
      "componentType": 5126,
      "count": 65533,
      "max": [
        4.854400157928467,
        173.022705078125,
        8.554200172424316
      ],
      "min": [
        -3.880500078201294,
        170.64549255371094,
        7.232699871063232
      ],
      "type": "VEC3"
    },
    {
      "bufferView": 2,
      "byteOffset": 21233268,
      "componentType": 5126,
      "count": 65533,
      "max": [
        0.9950541853904724,
        0.9824049472808838,
        1.0
      ],
      "min": [
        -0.9918419122695923,
        -0.9475483894348145,
        -0.1156504824757576
      ],
      "type": "VEC3"
    },
    {
      "bufferView": 1,
      "byteOffset": 6815624,
      "componentType": 5126,
      "count": 65533,
      "max": [
        0.0,
        0.0
      ],
      "min": [
        0.0,
        0.0
      ],
      "type": "VEC2"
    },
    {
      "bufferView": 0,
      "byteOffset": 3408540,
      "componentType": 5125,
      "count": 65607,
      "type": "SCALAR"
    },
    {
      "bufferView": 2,
      "byteOffset": 22019664,
      "componentType": 5126,
      "count": 65534,
      "max": [
        3.880000114440918,
        173.51539611816406,
        8.554699897766113
      ],
      "min": [
        -4.508600234985352,
        170.125,
        6.764500141143799
      ],
      "type": "VEC3"
    },
    {
      "bufferView": 2,
      "byteOffset": 22806072,
      "componentType": 5126,
      "count": 65534,
      "max": [
        0.999405026435852,
        0.9997326135635376,
        0.9976462125778198
      ],
      "min": [
        -0.9827231764793396,
        -0.9997847676277161,
        -0.6544092297554016
      ],
      "type": "VEC3"
    },
    {
      "bufferView": 1,
      "byteOffset": 7339888,
      "componentType": 5126,
      "count": 65534,
      "max": [
        0.0,
        0.0
      ],
      "min": [
        0.0,
        0.0
      ],
      "type": "VEC2"
    },
    {
      "bufferView": 0,
      "byteOffset": 3670968,
      "componentType": 5125,
      "count": 65604,
      "type": "SCALAR"
    },
    {
      "bufferView": 2,
      "byteOffset": 23592480,
      "componentType": 5126,
      "count": 65533,
      "max": [
        4.785600185394287,
        173.5137939453125,
        8.306099891662598
      ],
      "min": [
        -4.886600017547607,
        164.0457000732422,
        1.7882000207901
      ],
      "type": "VEC3"
    },
    {
      "bufferView": 2,
      "byteOffset": 24378876,
      "componentType": 5126,
      "count": 65533,
      "max": [
        0.9998469948768616,
        0.9910452961921692,
        0.9997438192367554
      ],
      "min": [
        -0.9995545148849487,
        -0.9999880790710449,
        -0.9999986886978149
      ],
      "type": "VEC3"
    },
    {
      "bufferView": 1,
      "byteOffset": 7864160,
      "componentType": 5126,
      "count": 65533,
      "max": [
        0.0,
        0.0
      ],
      "min": [
        0.0,
        0.0
      ],
      "type": "VEC2"
    },
    {
      "bufferView": 0,
      "byteOffset": 3933384,
      "componentType": 5125,
      "count": 65559,
      "type": "SCALAR"
    },
    {
      "bufferView": 2,
      "byteOffset": 25165272,
      "componentType": 5126,
      "count": 65532,
      "max": [
        2.0418999195098877,
        166.05209350585938,
        8.485099792480469
      ],
      "min": [
        -2.5035998821258545,
        162.38980102539063,
        2.035099983215332
      ],
      "type": "VEC3"
    },
    {
      "bufferView": 2,
      "byteOffset": 25951656,
      "componentType": 5126,
      "count": 65532,
      "max": [
        0.9999480843544006,
        0.9999974966049194,
        0.9819052219390869
      ],
      "min": [
        -0.9999603629112244,
        -0.999998927116394,
        -0.955851137638092
      ],
      "type": "VEC3"
    },
    {
      "bufferView": 1,
      "byteOffset": 8388424,
      "componentType": 5126,
      "count": 65532,
      "max": [
        0.0,
        0.0
      ],
      "min": [
        0.0,
        0.0
      ],
      "type": "VEC2"
    },
    {
      "bufferView": 0,
      "byteOffset": 4195620,
      "componentType": 5125,
      "count": 65550,
      "type": "SCALAR"
    },
    {
      "bufferView": 2,
      "byteOffset": 26738040,
      "componentType": 5126,
      "count": 65534,
      "max": [
        3.992799997329712,
        165.7873992919922,
        10.079299926757813
      ],
      "min": [
        -76.31690216064453,
        102.27549743652344,
        -6.195499897003174
      ],
      "type": "VEC3"
    },
    {
      "bufferView": 2,
      "byteOffset": 27524448,
      "componentType": 5126,
      "count": 65534,
      "max": [
        0.8481193780899048,
        0.9999990463256836,
        0.9996365308761597
      ],
      "min": [
        -0.9999257326126099,
        -0.999997615814209,
        -0.9997528791427612
      ],
      "type": "VEC3"
    },
    {
      "bufferView": 1,
      "byteOffset": 8912680,
      "componentType": 5126,
      "count": 65534,
      "max": [
        0.0,
        0.0
      ],
      "min": [
        0.0,
        0.0
      ],
      "type": "VEC2"
    },
    {
      "bufferView": 0,
      "byteOffset": 4457820,
      "componentType": 5125,
      "count": 65553,
      "type": "SCALAR"
    },
    {
      "bufferView": 2,
      "byteOffset": 28310856,
      "componentType": 5126,
      "count": 65532,
      "max": [
        6.679699897766113,
        174.62550354003906,
        12.644800186157227
      ],
      "min": [
        -75.9291000366211,
        101.78089904785156,
        -4.565100193023682
      ],
      "type": "VEC3"
    },
    {
      "bufferView": 2,
      "byteOffset": 29097240,
      "componentType": 5126,
      "count": 65532,
      "max": [
        0.9967646598815918,
        0.9992527365684509,
        0.9999995231628418
      ],
      "min": [
        -0.9995059370994568,
        -0.999657154083252,
        -0.9999909400939941
      ],
      "type": "VEC3"
    },
    {
      "bufferView": 1,
      "byteOffset": 9436952,
      "componentType": 5126,
      "count": 65532,
      "max": [
        0.0,
        0.0
      ],
      "min": [
        0.0,
        0.0
      ],
      "type": "VEC2"
    },
    {
      "bufferView": 0,
      "byteOffset": 4720032,
      "componentType": 5125,
      "count": 65538,
      "type": "SCALAR"
    },
    {
      "bufferView": 2,
      "byteOffset": 29883624,
      "componentType": 5126,
      "count": 65533,
      "max": [
        11.958399772644043,
        183.6331024169922,
        10.542400360107422
      ],
      "min": [
        -0.033399999141693115,
        148.58309936523438,
        -10.887299537658691
      ],
      "type": "VEC3"
    },
    {
      "bufferView": 2,
      "byteOffset": 30670020,
      "componentType": 5126,
      "count": 65533,
      "max": [
        0.9999990463256836,
        0.9997416734695435,
        0.9994899034500122
      ],
      "min": [
        -0.9054146409034729,
        -0.997788667678833,
        -0.9906221628189087
      ],
      "type": "VEC3"
    },
    {
      "bufferView": 1,
      "byteOffset": 9961208,
      "componentType": 5126,
      "count": 65533,
      "max": [
        0.0,
        0.0
      ],
      "min": [
        0.0,
        0.0
      ],
      "type": "VEC2"
    },
    {
      "bufferView": 0,
      "byteOffset": 4982184,
      "componentType": 5125,
      "count": 65541,
      "type": "SCALAR"
    },
    {
      "bufferView": 2,
      "byteOffset": 31456416,
      "componentType": 5126,
      "count": 65534,
      "max": [
        14.163800239562988,
        182.73269653320313,
        10.60789966583252
      ],
      "min": [
        -0.04230000078678131,
        148.17730712890625,
        -16.31130027770996
      ],
      "type": "VEC3"
    },
    {
      "bufferView": 2,
      "byteOffset": 32242824,
      "componentType": 5126,
      "count": 65534,
      "max": [
        0.9998589158058167,
        0.9990426301956177,
        0.9999963045120239
      ],
      "min": [
        -0.9764114618301392,
        -0.9997513294219971,
        -0.9999327659606934
      ],
      "type": "VEC3"
    },
    {
      "bufferView": 1,
      "byteOffset": 10485472,
      "componentType": 5126,
      "count": 65534,
      "max": [
        0.0,
        0.0
      ],
      "min": [
        0.0,
        0.0
      ],
      "type": "VEC2"
    },
    {
      "bufferView": 0,
      "byteOffset": 5244348,
      "componentType": 5125,
      "count": 65544,
      "type": "SCALAR"
    },
    {
      "bufferView": 2,
      "byteOffset": 33029232,
      "componentType": 5126,
      "count": 65532,
      "max": [
        14.048999786376953,
        174.62550354003906,
        12.62909984588623
      ],
      "min": [
        -6.334400177001953,
        152.88369750976563,
        -4.912099838256836
      ],
      "type": "VEC3"
    },
    {
      "bufferView": 2,
      "byteOffset": 33815616,
      "componentType": 5126,
      "count": 65532,
      "max": [
        0.999998927116394,
        0.9992119073867798,
        0.9999953508377075
      ],
      "min": [
        -0.9944164156913757,
        -0.9930416941642761,
        -0.9995591640472412
      ],
      "type": "VEC3"
    },
    {
      "bufferView": 1,
      "byteOffset": 11009744,
      "componentType": 5126,
      "count": 65532,
      "max": [
        0.0,
        0.0
      ],
      "min": [
        0.0,
        0.0
      ],
      "type": "VEC2"
    },
    {
      "bufferView": 0,
      "byteOffset": 5506524,
      "componentType": 5125,
      "count": 65544,
      "type": "SCALAR"
    },
    {
      "bufferView": 2,
      "byteOffset": 34602000,
      "componentType": 5126,
      "count": 65532,
      "max": [
        0.0007999999797903001,
        182.9217987060547,
        12.644800186157227
      ],
      "min": [
        -11.958900451660156,
        148.58309936523438,
        -4.6305999755859375
      ],
      "type": "VEC3"
    },
    {
      "bufferView": 2,
      "byteOffset": 35388384,
      "componentType": 5126,
      "count": 65532,
      "max": [
        0.9075430631637573,
        0.9983825087547302,
        0.9998259544372559
      ],
      "min": [
        -0.999996542930603,
        -0.9996544122695923,
        -0.990598201751709
      ],
      "type": "VEC3"
    },
    {
      "bufferView": 1,
      "byteOffset": 11534000,
      "componentType": 5126,
      "count": 65532,
      "max": [
        0.0,
        0.0
      ],
      "min": [
        0.0,
        0.0
      ],
      "type": "VEC2"
    },
    {
      "bufferView": 0,
      "byteOffset": 5768700,
      "componentType": 5125,
      "count": 65544,
      "type": "SCALAR"
    },
    {
      "bufferView": 2,
      "byteOffset": 36174768,
      "componentType": 5126,
      "count": 65533,
      "max": [
        0.005900000222027302,
        183.6331024169922,
        10.60789966583252
      ],
      "min": [
        -14.164400100708008,
        148.17730712890625,
        -16.31130027770996
      ],
      "type": "VEC3"
    },
    {
      "bufferView": 2,
      "byteOffset": 36961164,
      "componentType": 5126,
      "count": 65533,
      "max": [
        0.6459907293319702,
        0.9996926188468933,
        0.9999966621398926
      ],
      "min": [
        -0.999998927116394,
        -0.9997512102127075,
        -0.999923586845398
      ],
      "type": "VEC3"
    },
    {
      "bufferView": 1,
      "byteOffset": 12058256,
      "componentType": 5126,
      "count": 65533,
      "max": [
        0.0,
        0.0
      ],
      "min": [
        0.0,
        0.0
      ],
      "type": "VEC2"
    },
    {
      "bufferView": 0,
      "byteOffset": 6030876,
      "componentType": 5125,
      "count": 65547,
      "type": "SCALAR"
    },
    {
      "bufferView": 2,
      "byteOffset": 37747560,
      "componentType": 5126,
      "count": 65534,
      "max": [
        6.998600006103516,
        173.92059326171875,
        11.481399536132813
      ],
      "min": [
        -14.049500465393066,
        152.88369750976563,
        -4.912099838256836
      ],
      "type": "VEC3"
    },
    {
      "bufferView": 2,
      "byteOffset": 38533968,
      "componentType": 5126,
      "count": 65534,
      "max": [
        0.9940493106842041,
        0.9992098808288574,
        0.999836802482605
      ],
      "min": [
        -0.9999958276748657,
        -0.9930485486984253,
        -0.9995599985122681
      ],
      "type": "VEC3"
    },
    {
      "bufferView": 1,
      "byteOffset": 12582520,
      "componentType": 5126,
      "count": 65534,
      "max": [
        0.0,
        0.0
      ],
      "min": [
        0.0,
        0.0
      ],
      "type": "VEC2"
    },
    {
      "bufferView": 0,
      "byteOffset": 6293064,
      "componentType": 5125,
      "count": 65538,
      "type": "SCALAR"
    },
    {
      "bufferView": 2,
      "byteOffset": 39320376,
      "componentType": 5126,
      "count": 65533,
      "max": [
        30.78890037536621,
        167.28489685058594,
        14.757200241088867
      ],
      "min": [
        -7.008500099182129,
        107.72599792480469,
        -7.859099864959717
      ],
      "type": "VEC3"
    },
    {
      "bufferView": 2,
      "byteOffset": 40106772,
      "componentType": 5126,
      "count": 65533,
      "max": [
        0.9995577335357666,
        0.9996901154518127,
        0.999963104724884
      ],
      "min": [
        -0.9968810677528381,
        -0.9935371279716492,
        -0.9559903740882874
      ],
      "type": "VEC3"
    },
    {
      "bufferView": 1,
      "byteOffset": 13106792,
      "componentType": 5126,
      "count": 65533,
      "max": [
        0.0,
        0.0
      ],
      "min": [
        0.0,
        0.0
      ],
      "type": "VEC2"
    },
    {
      "bufferView": 0,
      "byteOffset": 6555216,
      "componentType": 5125,
      "count": 65541,
      "type": "SCALAR"
    },
    {
      "bufferView": 2,
      "byteOffset": 40893168,
      "componentType": 5126,
      "count": 65533,
      "max": [
        30.314699172973633,
        154.42230224609375,
        14.732999801635742
      ],
      "min": [
        -30.789400100708008,
        107.72879791259766,
        -10.932600021362305
      ],
      "type": "VEC3"
    },
    {
      "bufferView": 2,
      "byteOffset": 41679564,
      "componentType": 5126,
      "count": 65533,
      "max": [
        0.9999873638153076,
        0.9905679821968079,
        0.9999932050704956
      ],
      "min": [
        -0.9995577335357666,
        -0.9062629342079163,
        -0.7732208371162415
      ],
      "type": "VEC3"
    },
    {
      "bufferView": 1,
      "byteOffset": 13631056,
      "componentType": 5126,
      "count": 65533,
      "max": [
        0.0,
        0.0
      ],
      "min": [
        0.0,
        0.0
      ],
      "type": "VEC2"
    },
    {
      "bufferView": 0,
      "byteOffset": 6817380,
      "componentType": 5125,
      "count": 65547,
      "type": "SCALAR"
    },
    {
      "bufferView": 2,
      "byteOffset": 42465960,
      "componentType": 5126,
      "count": 65534,
      "max": [
        30.28730010986328,
        154.4346923828125,
        14.506999969482422
      ],
      "min": [
        -30.315200805664063,
        107.377197265625,
        -18.069299697875977
      ],
      "type": "VEC3"
    },
    {
      "bufferView": 2,
      "byteOffset": 43252368,
      "componentType": 5126,
      "count": 65534,
      "max": [
        0.9456712603569031,
        0.9905679821968079,
        0.9999009370803833
      ],
      "min": [
        -0.9999861717224121,
        -0.8235031366348267,
        -0.9998700022697449
      ],
      "type": "VEC3"
    },
    {
      "bufferView": 1,
      "byteOffset": 14155320,
      "componentType": 5126,
      "count": 65534,
      "max": [
        0.0,
        0.0
      ],
      "min": [
        0.0,
        0.0
      ],
      "type": "VEC2"
    },
    {
      "bufferView": 0,
      "byteOffset": 7079568,
      "componentType": 5125,
      "count": 65538,
      "type": "SCALAR"
    },
    {
      "bufferView": 2,
      "byteOffset": 44038776,
      "componentType": 5126,
      "count": 65533,
      "max": [
        24.755199432373047,
        154.4346923828125,
        -1.9291000366210938
      ],
      "min": [
        -30.287799835205078,
        107.377197265625,
        -18.472999572753906
      ],
      "type": "VEC3"
    },
    {
      "bufferView": 2,
      "byteOffset": 44825172,
      "componentType": 5126,
      "count": 65533,
      "max": [
        0.9544203281402588,
        0.9597058892250061,
        0.08844954520463943
      ],
      "min": [
        -0.9495326280593872,
        -0.927332878112793,
        -0.9999668002128601
      ],
      "type": "VEC3"
    },
    {
      "bufferView": 1,
      "byteOffset": 14679592,
      "componentType": 5126,
      "count": 65533,
      "max": [
        0.0,
        0.0
      ],
      "min": [
        0.0,
        0.0
      ],
      "type": "VEC2"
    },
    {
      "bufferView": 0,
      "byteOffset": 7341720,
      "componentType": 5125,
      "count": 65541,
      "type": "SCALAR"
    },
    {
      "bufferView": 2,
      "byteOffset": 45611568,
      "componentType": 5126,
      "count": 52081,
      "max": [
        16.46500015258789,
        150.9990997314453,
        14.627400398254395
      ],
      "min": [
        -13.309900283813477,
        83.5198974609375,
        -18.472999572753906
      ],
      "type": "VEC3"
    },
    {
      "bufferView": 2,
      "byteOffset": 46236540,
      "componentType": 5126,
      "count": 52081,
      "max": [
        0.9998021721839905,
        0.6387984752655029,
        0.9999939203262329
      ],
      "min": [
        -0.9989927411079407,
        -0.9999540448188782,
        -0.9999564290046692
      ],
      "type": "VEC3"
    },
    {
      "bufferView": 1,
      "byteOffset": 15203856,
      "componentType": 5126,
      "count": 52081,
      "max": [
        0.0,
        0.0
      ],
      "min": [
        0.0,
        0.0
      ],
      "type": "VEC2"
    },
    {
      "bufferView": 0,
      "byteOffset": 7603884,
      "componentType": 5125,
      "count": 52089,
      "type": "SCALAR"
    }
  ],
  "asset": {
    "extras": {
      "author": "prof.minaudo (https://sketchfab.com/prof.minaudo)",
      "license": "CC-BY-4.0 (http://creativecommons.org/licenses/by/4.0/)",
      "source": "https://sketchfab.com/3d-models/essere-umano-b31d27d7f9c84584a070838cf6f583ae",
      "title": "Essere-umano"
    },
    "generator": "Sketchfab-12.68.0",
    "version": "2.0"
  },
  "bufferViews": [
    {
      "buffer": 0,
      "byteLength": 7812240,
      "name": "floatBufferViews",
      "target": 34963
    },
    {
      "buffer": 0,
      "byteLength": 15620504,
      "byteOffset": 7812240,
      "byteStride": 8,
      "name": "floatBufferViews",
      "target": 34962
    },
    {
      "buffer": 0,
      "byteLength": 46861512,
      "byteOffset": 23432744,
      "byteStride": 12,
      "name": "floatBufferViews",
      "target": 34962
    }
  ],
  "buffers": [
    {
      "byteLength": 70294256,
      "uri": "scene.bin"
    }
  ],
  "images": [
    {
      "uri": "textures/Root_baseColor.jpeg"
    }
  ],
  "materials": [
    {
      "doubleSided": true,
      "name": "Root",
      "pbrMetallicRoughness": {
        "baseColorTexture": {
          "index": 0
        },
        "metallicFactor": 0.0,
        "roughnessFactor": 0.6
      }
    },
    {
      "doubleSided": true,
      "name": "Material",
      "pbrMetallicRoughness": {
        "baseColorTexture": {
          "index": 0
        },
        "metallicFactor": 0.0,
        "roughnessFactor": 0.6
      }
    }
  ],
  "meshes": [
    {
      "name": "Cube_0",
      "primitives": [
        {
          "attributes": {
            "NORMAL": 1,
            "POSITION": 0,
            "TEXCOORD_0": 2
          },
          "indices": 3,
          "material": 1,
          "mode": 4
        }
      ]
    },
    {
      "name": "Corpo-Umano_0",
      "primitives": [
        {
          "attributes": {
            "NORMAL": 5,
            "POSITION": 4,
            "TEXCOORD_0": 6
          },
          "indices": 7,
          "material": 0,
          "mode": 4
        }
      ]
    },
    {
      "name": "Corpo-Umano_0",
      "primitives": [
        {
          "attributes": {
            "NORMAL": 9,
            "POSITION": 8,
            "TEXCOORD_0": 10
          },
          "indices": 11,
          "material": 0,
          "mode": 4
        }
      ]
    },
    {
      "name": "Corpo-Umano_0",
      "primitives": [
        {
          "attributes": {
            "NORMAL": 13,
            "POSITION": 12,
            "TEXCOORD_0": 14
          },
          "indices": 15,
          "material": 0,
          "mode": 4
        }
      ]
    },
    {
      "name": "Corpo-Umano_0",
      "primitives": [
        {
          "attributes": {
            "NORMAL": 17,
            "POSITION": 16,
            "TEXCOORD_0": 18
          },
          "indices": 19,
          "material": 0,
          "mode": 4
        }
      ]
    },
    {
      "name": "Corpo-Umano_0",
      "primitives": [
        {
          "attributes": {
            "NORMAL": 21,
            "POSITION": 20,
            "TEXCOORD_0": 22
          },
          "indices": 23,
          "material": 0,
          "mode": 4
        }
      ]
    },
    {
      "name": "Corpo-Umano_0",
      "primitives": [
        {
          "attributes": {
            "NORMAL": 25,
            "POSITION": 24,
            "TEXCOORD_0": 26
          },
          "indices": 27,
          "material": 0,
          "mode": 4
        }
      ]
    },
    {
      "name": "Corpo-Umano_0",
      "primitives": [
        {
          "attributes": {
            "NORMAL": 29,
            "POSITION": 28,
            "TEXCOORD_0": 30
          },
          "indices": 31,
          "material": 0,
          "mode": 4
        }
      ]
    },
    {
      "name": "Corpo-Umano_0",
      "primitives": [
        {
          "attributes": {
            "NORMAL": 33,
            "POSITION": 32,
            "TEXCOORD_0": 34
          },
          "indices": 35,
          "material": 0,
          "mode": 4
        }
      ]
    },
    {
      "name": "Corpo-Umano_0",
      "primitives": [
        {
          "attributes": {
            "NORMAL": 37,
            "POSITION": 36,
            "TEXCOORD_0": 38
          },
          "indices": 39,
          "material": 0,
          "mode": 4
        }
      ]
    },
    {
      "name": "Corpo-Umano_0",
      "primitives": [
        {
          "attributes": {
            "NORMAL": 41,
            "POSITION": 40,
            "TEXCOORD_0": 42
          },
          "indices": 43,
          "material": 0,
          "mode": 4
        }
      ]
    },
    {
      "name": "Corpo-Umano_0",
      "primitives": [
        {
          "attributes": {
            "NORMAL": 45,
            "POSITION": 44,
            "TEXCOORD_0": 46
          },
          "indices": 47,
          "material": 0,
          "mode": 4
        }
      ]
    },
    {
      "name": "Corpo-Umano_0",
      "primitives": [
        {
          "attributes": {
            "NORMAL": 49,
            "POSITION": 48,
            "TEXCOORD_0": 50
          },
          "indices": 51,
          "material": 0,
          "mode": 4
        }
      ]
    },
    {
      "name": "Corpo-Umano_0",
      "primitives": [
        {
          "attributes": {
            "NORMAL": 53,
            "POSITION": 52,
            "TEXCOORD_0": 54
          },
          "indices": 55,
          "material": 0,
          "mode": 4
        }
      ]
    },
    {
      "name": "Corpo-Umano_0",
      "primitives": [
        {
          "attributes": {
            "NORMAL": 57,
            "POSITION": 56,
            "TEXCOORD_0": 58
          },
          "indices": 59,
          "material": 0,
          "mode": 4
        }
      ]
    },
    {
      "name": "Corpo-Umano_0",
      "primitives": [
        {
          "attributes": {
            "NORMAL": 61,
            "POSITION": 60,
            "TEXCOORD_0": 62
          },
          "indices": 63,
          "material": 0,
          "mode": 4
        }
      ]
    },
    {
      "name": "Corpo-Umano_0",
      "primitives": [
        {
          "attributes": {
            "NORMAL": 65,
            "POSITION": 64,
            "TEXCOORD_0": 66
          },
          "indices": 67,
          "material": 0,
          "mode": 4
        }
      ]
    },
    {
      "name": "Corpo-Umano_0",
      "primitives": [
        {
          "attributes": {
            "NORMAL": 69,
            "POSITION": 68,
            "TEXCOORD_0": 70
          },
          "indices": 71,
          "material": 0,
          "mode": 4
        }
      ]
    },
    {
      "name": "Corpo-Umano_0",
      "primitives": [
        {
          "attributes": {
            "NORMAL": 73,
            "POSITION": 72,
            "TEXCOORD_0": 74
          },
          "indices": 75,
          "material": 0,
          "mode": 4
        }
      ]
    },
    {
      "name": "Corpo-Umano_0",
      "primitives": [
        {
          "attributes": {
            "NORMAL": 77,
            "POSITION": 76,
            "TEXCOORD_0": 78
          },
          "indices": 79,
          "material": 0,
          "mode": 4
        }
      ]
    },
    {
      "name": "Corpo-Umano_0",
      "primitives": [
        {
          "attributes": {
            "NORMAL": 81,
            "POSITION": 80,
            "TEXCOORD_0": 82
          },
          "indices": 83,
          "material": 0,
          "mode": 4
        }
      ]
    },
    {
      "name": "Corpo-Umano_0",
      "primitives": [
        {
          "attributes": {
            "NORMAL": 85,
            "POSITION": 84,
            "TEXCOORD_0": 86
          },
          "indices": 87,
          "material": 0,
          "mode": 4
        }
      ]
    },
    {
      "name": "Corpo-Umano_0",
      "primitives": [
        {
          "attributes": {
            "NORMAL": 89,
            "POSITION": 88,
            "TEXCOORD_0": 90
          },
          "indices": 91,
          "material": 0,
          "mode": 4
        }
      ]
    },
    {
      "name": "Corpo-Umano_0",
      "primitives": [
        {
          "attributes": {
            "NORMAL": 93,
            "POSITION": 92,
            "TEXCOORD_0": 94
          },
          "indices": 95,
          "material": 0,
          "mode": 4
        }
      ]
    },
    {
      "name": "Corpo-Umano_0",
      "primitives": [
        {
          "attributes": {
            "NORMAL": 97,
            "POSITION": 96,
            "TEXCOORD_0": 98
          },
          "indices": 99,
          "material": 0,
          "mode": 4
        }
      ]
    },
    {
      "name": "Corpo-Umano_0",
      "primitives": [
        {
          "attributes": {
            "NORMAL": 101,
            "POSITION": 100,
            "TEXCOORD_0": 102
          },
          "indices": 103,
          "material": 0,
          "mode": 4
        }
      ]
    },
    {
      "name": "Corpo-Umano_0",
      "primitives": [
        {
          "attributes": {
            "NORMAL": 105,
            "POSITION": 104,
            "TEXCOORD_0": 106
          },
          "indices": 107,
          "material": 0,
          "mode": 4
        }
      ]
    },
    {
      "name": "Corpo-Umano_0",
      "primitives": [
        {
          "attributes": {
            "NORMAL": 109,
            "POSITION": 108,
            "TEXCOORD_0": 110
          },
          "indices": 111,
          "material": 0,
          "mode": 4
        }
      ]
    },
    {
      "name": "Corpo-Umano_0",
      "primitives": [
        {
          "attributes": {
            "NORMAL": 113,
            "POSITION": 112,
            "TEXCOORD_0": 114
          },
          "indices": 115,
          "material": 0,
          "mode": 4
        }
      ]
    },
    {
      "name": "Corpo-Umano_0",
      "primitives": [
        {
          "attributes": {
            "NORMAL": 117,
            "POSITION": 116,
            "TEXCOORD_0": 118
          },
          "indices": 119,
          "material": 0,
          "mode": 4
        }
      ]
    },
    {
      "name": "Corpo-Umano_0",
      "primitives": [
        {
          "attributes": {
            "NORMAL": 121,
            "POSITION": 120,
            "TEXCOORD_0": 122
          },
          "indices": 123,
          "material": 0,
          "mode": 4
        }
      ]
    }
  ],
  "nodes": [
    {
      "children": [
        1
      ],
      "matrix": [
        1.0,
        0.0,
        0.0,
        0.0,
        0.0,
        2.220446049250313e-16,
        -1.0,
        0.0,
        0.0,
        1.0,
        2.220446049250313e-16,
        0.0,
        0.0,
        0.0,
        0.0,
        1.0
      ],
      "name": "Sketchfab_model"
    },
    {
      "children": [
        2,
        4,
        6
      ],
      "name": "Root"
    },
    {
      "children": [
        3
      ],
      "matrix": [
        -0.29086000000000006,
        0.9551700000000001,
        -0.05519000000000001,
        0.0,
        -0.7711,
        -0.19988000000000003,
        0.6045200000000001,
        0.0,
        0.5663900000000001,
        0.21839000000000003,
        0.7946700000000001,
        0.0,
        4.076250000000001,
        1.00545,
        5.903860000000001,
        1.0
      ],
      "name": "Lamp"
    },
    {
      "name": "Lamp"
    },
    {
      "children": [
        5
      ],
      "name": "Cube"
    },
    {
      "mesh": 0,
      "name": "Cube_0"
    },
    {
      "children": [
        7,
        8,
        9,
        10,
        11,
        12,
        13,
        14,
        15,
        16,
        17,
        18,
        19,
        20,
        21,
        22,
        23,
        24,
        25,
        26,
        27,
        28,
        29,
        30,
        31,
        32,
        33,
        34,
        35,
        36
      ],
      "name": "Corpo-Umano"
    },
    {
      "mesh": 1,
      "name": "Corpo-Umano_0"
    },
    {
      "mesh": 2,
      "name": "Corpo-Umano_0"
    },
    {
      "mesh": 3,
      "name": "Corpo-Umano_0"
    },
    {
      "mesh": 4,
      "name": "Corpo-Umano_0"
    },
    {
      "mesh": 5,
      "name": "Corpo-Umano_0"
    },
    {
      "mesh": 6,
      "name": "Corpo-Umano_0"
    },
    {
      "mesh": 7,
      "name": "Corpo-Umano_0"
    },
    {
      "mesh": 8,
      "name": "Corpo-Umano_0"
    },
    {
      "mesh": 9,
      "name": "Corpo-Umano_0"
    },
    {
      "mesh": 10,
      "name": "Corpo-Umano_0"
    },
    {
      "mesh": 11,
      "name": "Corpo-Umano_0"
    },
    {
      "mesh": 12,
      "name": "Corpo-Umano_0"
    },
    {
      "mesh": 13,
      "name": "Corpo-Umano_0"
    },
    {
      "mesh": 14,
      "name": "Corpo-Umano_0"
    },
    {
      "mesh": 15,
      "name": "Corpo-Umano_0"
    },
    {
      "mesh": 16,
      "name": "Corpo-Umano_0"
    },
    {
      "mesh": 17,
      "name": "Corpo-Umano_0"
    },
    {
      "mesh": 18,
      "name": "Corpo-Umano_0"
    },
    {
      "mesh": 19,
      "name": "Corpo-Umano_0"
    },
    {
      "mesh": 20,
      "name": "Corpo-Umano_0"
    },
    {
      "mesh": 21,
      "name": "Corpo-Umano_0"
    },
    {
      "mesh": 22,
      "name": "Corpo-Umano_0"
    },
    {
      "mesh": 23,
      "name": "Corpo-Umano_0"
    },
    {
      "mesh": 24,
      "name": "Corpo-Umano_0"
    },
    {
      "mesh": 25,
      "name": "Corpo-Umano_0"
    },
    {
      "mesh": 26,
      "name": "Corpo-Umano_0"
    },
    {
      "mesh": 27,
      "name": "Corpo-Umano_0"
    },
    {
      "mesh": 28,
      "name": "Corpo-Umano_0"
    },
    {
      "mesh": 29,
      "name": "Corpo-Umano_0"
    },
    {
      "mesh": 30,
      "name": "Corpo-Umano_0"
    }
  ],
  "samplers": [
    {
      "magFilter": 9729,
      "minFilter": 9987,
      "wrapS": 10497,
      "wrapT": 10497
    }
  ],
  "scene": 0,
  "scenes": [
    {
      "name": "Sketchfab_Scene",
      "nodes": [
        0
      ]
    }
  ],
  "textures": [
    {
      "sampler": 0,
      "source": 0
    }
  ]
}
